<?xml version="1.0" encoding="utf-8"?>
<!-- Generator: Adobe Illustrator 23.1.1, SVG Export Plug-In . SVG Version: 6.00 Build 0)  -->
<svg version="1.1" id="Layer_1" xmlns="http://www.w3.org/2000/svg" xmlns:xlink="http://www.w3.org/1999/xlink" x="0px" y="0px"
	 viewBox="0 0 785.7 120.7" style="enable-background:new 0 0 785.7 120.7;" xml:space="preserve">
<style type="text/css">
	.st0{fill:#808080;}
	.st1{fill:#008FBE;}
</style>
<g>
	<line class="st0" x1="2.8" y1="70.8" x2="785.5" y2="70.8"/>
	<polygon class="st0" points="785.5,72.3 2.8,68.3 2.8,72.3 785.5,70.3 	"/>
</g>
<g>
	<path d="M62.3,65c0.1-0.9,0.2-1.8,0.2-2.6c0-1.9-0.4-4.5-1.1-7.9l-2.1-9.3H24.6l-8,11c-1.8,2.4-3,4.2-3.7,5.4
		c-0.7,1.3-1.2,2.4-1.4,3.5H3c2.2-2,4.3-4.4,6.3-7L48.6,4.1c-0.3-0.9-0.6-1.6-0.9-2c-0.3-0.5-0.8-1.2-1.5-2h13.1l12.8,53.3
		c1.3,5.6,2.5,9.5,3.8,11.7H62.3z M50.8,8.9L28.2,39.8h29.9L50.8,8.9z"/>
	<path d="M144.9,0l-1,6c-1.2-0.2-2.7-0.4-4.6-0.5c-1.9-0.1-4.6-0.2-7.9-0.2h-26.5l-6.2,24.6h24.1c3.3,0,6-0.1,8-0.2
		c2-0.1,3.8-0.3,5.5-0.5l-1.6,6.7c-1.7-0.2-3.5-0.4-5.4-0.5c-1.9-0.1-4.5-0.2-7.8-0.2H97.4l-6.1,24.6h26.5c3.4,0,6.1-0.1,8.1-0.2
		c2-0.1,3.6-0.3,4.8-0.5l-2,6H78.7c0.7-1.4,1.3-2.9,1.8-4.4c0.5-1.5,1.1-3.4,1.7-5.8l11.2-44.7c0.5-2.3,0.9-4.2,1.2-5.7
		c0.3-1.5,0.4-3,0.4-4.4H144.9z"/>
	<path d="M153.8,35.3l-4.9,19.5c-0.6,2.4-1,4.4-1.3,5.9c-0.2,1.5-0.4,2.9-0.4,4.3h-12.2c0.7-1.4,1.3-2.9,1.8-4.4
		c0.5-1.5,1.1-3.4,1.7-5.8l11.2-44.7c0.5-2.3,0.9-4.2,1.2-5.7c0.3-1.5,0.4-3,0.4-4.4h45c4.3,0,7.3,0.5,9.2,1.5
		c1.9,1,2.8,2.8,2.8,5.5c0,1.6-0.3,3.4-0.8,5.6l-2.5,10.3c-1.3,4.9-3.1,8.2-5.3,9.9c-2.3,1.8-5.6,2.6-9.9,2.6v0.2
		c1.4,7.2,2.6,13.2,3.8,18c1.2,4.8,2.4,8.6,3.7,11.3h-12l-6.4-29.6H153.8z M155.1,30h33.3c1.8,0,3-0.3,3.8-1
		c0.7-0.7,1.4-2.1,1.9-4.3l3.6-14.2c0.3-1.3,0.4-2.3,0.4-2.9c0-0.9-0.3-1.5-0.8-1.8c-0.5-0.3-1.4-0.5-2.7-0.5h-33.3L155.1,30z"/>
	<path d="M264.5,0c3.9,0,6.6,0.7,8.4,2.1c1.7,1.4,2.6,3.4,2.6,5.9c0,1.3-0.2,2.7-0.6,4.4l-10,40.2c-0.9,3.9-2.7,7-5.3,9.1
		c-2.6,2.2-6.3,3.2-11.2,3.2h-32.2c-3.9,0-6.7-0.7-8.5-2.1c-1.7-1.4-2.6-3.4-2.6-5.9c0-1.3,0.2-2.7,0.6-4.4l10-40.2
		c1-4,2.8-7.1,5.4-9.2c2.6-2.1,6.3-3.2,11.3-3.2H264.5z M265,10.6c0.3-1.3,0.4-2.3,0.4-2.9c0-0.9-0.3-1.5-0.8-1.8
		c-0.5-0.3-1.4-0.5-2.7-0.5h-29.7c-1.8,0-3.1,0.3-3.9,1c-0.7,0.7-1.4,2.1-1.8,4.3l-11,43.8c-0.3,1.3-0.5,2.3-0.5,2.9
		c0,0.9,0.3,1.5,0.8,1.8c0.5,0.3,1.5,0.5,2.7,0.5h29.7c1.8,0,3-0.3,3.8-1c0.7-0.7,1.4-2.1,1.9-4.3L265,10.6z"/>
	<path class="st1" d="M284.9,11.2c0.8-3.2,1.2-5.7,1.2-7.6c0-1.1-0.1-2.3-0.4-3.6h53.2c5.1,0,8.7,0.7,10.9,2.2
		c2.2,1.5,3.2,3.7,3.2,6.5c0,1.3-0.2,2.8-0.6,4.7l-1.8,7.4c-1,3.9-2.8,6.4-5.3,7.8c-2.5,1.3-6.3,2.2-11.5,2.6v0.2
		c4.6,0.6,7.8,1.3,9.5,2.1c1.8,0.8,2.6,2.2,2.6,4.2c0,0.9-0.2,1.9-0.5,3.1l-2.6,10.8c-1.1,4.4-3.1,7.7-6.1,10
		c-3,2.3-7.7,3.4-14.1,3.4h-53.2c1.1-1.4,2-2.9,2.7-4.5c0.7-1.6,1.4-3.8,2.1-6.6L284.9,11.2z M298.9,54.2h14.4
		c1.6,0,2.8-0.2,3.5-0.7c0.7-0.5,1.2-1.5,1.5-2.9l2.5-10.1c0.2-0.7,0.3-1.4,0.3-1.8c0-0.7-0.3-1.2-0.8-1.5c-0.5-0.2-1.4-0.4-2.7-0.4
		h-14.4L298.9,54.2z M306,26h14.4c1.6,0,2.8-0.2,3.4-0.7c0.6-0.5,1.2-1.5,1.6-2.9l1.9-7.9c0.2-0.7,0.3-1.4,0.3-1.8
		c0-0.7-0.3-1.2-0.8-1.5c-0.5-0.2-1.4-0.4-2.7-0.4h-14.4L306,26z"/>
	<path class="st1" d="M367.8,47.5l-6.6,8.9c-0.9,1.2-1.6,2.5-1.8,3.9c-0.3,1-0.4,1.7-0.4,2.1c0,0.5,0.2,1.3,0.6,2.5h-18.4
		c1.3-1.2,2.4-2.3,3.2-3.2c0.9-0.9,1.7-1.8,2.4-2.6c0.7-0.8,1.5-1.7,2.1-2.5c0.7-0.8,1.5-2,2.5-3.4l36-49.5L385.7,0H415l9.1,56
		c0.6,3.4,1.8,6.4,3.5,8.9H395c1-1.3,1.6-2.1,1.9-2.6c0.2-0.4,0.5-1,0.7-1.7c0.3-1.2,0.4-2.3,0.4-3.3c0-0.2,0-0.5-0.1-0.8
		c-0.1-0.3-0.1-0.6-0.1-0.7l-1.4-8.3H367.8z M394.7,36.7L391,14.8l-15.4,21.9H394.7z"/>
	<path class="st1" d="M463,36.7l-4.3,17.1c-0.7,3.2-1.1,5.7-1.1,7.6c0,1.1,0.1,2.3,0.4,3.6h-28.8c1.1-1.4,2-2.9,2.7-4.5
		c0.7-1.6,1.4-3.8,2.1-6.6l10.7-42.6c0.7-2.9,1.1-5.2,1.1-6.9c0-1.5-0.3-2.9-0.9-4.3h53.4c4.7,0,8.3,0.7,10.6,2
		c2.3,1.4,3.5,3.7,3.5,7c0,1.5-0.3,3.2-0.8,5.3l-2.9,12c-0.6,2.3-1.3,4.1-2.2,5.5c-0.8,1.4-1.8,2.4-2.8,3c-1,0.6-2.1,1.1-3.2,1.3
		c-1.1,0.2-2.6,0.4-4.3,0.6l4.3,18.3c0.2,0.9,0.4,1.9,0.7,2.9c0.7,3.5,1.5,5.8,2.2,7h-27.7l-4.8-28.2H463z M465.8,26h14
		c1.6,0,2.8-0.2,3.4-0.7c0.6-0.5,1.2-1.5,1.6-2.9l1.9-7.9c0.2-0.7,0.3-1.4,0.3-1.8c0-0.7-0.3-1.2-0.8-1.5c-0.5-0.2-1.4-0.4-2.7-0.4
		h-14L465.8,26z"/>
	<path class="st1" d="M542,36.7l-4.3,17.1c-0.7,3.2-1.1,5.7-1.1,7.6c0,1.1,0.1,2.3,0.4,3.6h-28.8c1.1-1.4,2-2.9,2.7-4.5
		c0.7-1.6,1.4-3.8,2.1-6.6l10.7-42.6c0.7-2.9,1.1-5.2,1.1-6.9c0-1.5-0.3-2.9-0.9-4.3h53.4c4.7,0,8.3,0.7,10.6,2
		c2.3,1.4,3.5,3.7,3.5,7c0,1.5-0.3,3.2-0.8,5.3l-2.9,12c-0.6,2.3-1.3,4.1-2.2,5.5c-0.8,1.4-1.8,2.4-2.8,3c-1,0.6-2.1,1.1-3.2,1.3
		c-1.1,0.2-2.6,0.4-4.3,0.6l4.3,18.3c0.2,0.9,0.4,1.9,0.7,2.9c0.7,3.5,1.5,5.8,2.2,7h-27.7l-4.8-28.2H542z M544.7,26h14
		c1.6,0,2.8-0.2,3.4-0.7c0.6-0.5,1.2-1.5,1.6-2.9l1.9-7.9c0.2-0.7,0.3-1.4,0.3-1.8c0-0.7-0.3-1.2-0.8-1.5c-0.5-0.2-1.4-0.4-2.7-0.4
		h-14L544.7,26z"/>
	<path class="st1" d="M589,65c1.1-1.4,2-2.9,2.7-4.5c0.7-1.6,1.4-3.8,2.1-6.6l10.7-42.6c0.8-3.2,1.2-5.7,1.2-7.6
		c0-1.1-0.1-2.3-0.4-3.6h28.8c-1.1,1.4-2,2.9-2.7,4.5c-0.7,1.6-1.4,3.8-2.2,6.6l-10.7,42.6c-0.7,3.2-1.1,5.7-1.1,7.6
		c0,1.1,0.1,2.3,0.4,3.6H589z"/>
	<path class="st1" d="M677.6,54.2c2.6,0,4.8-0.2,6.4-0.5c1.6-0.3,3.4-0.7,5.3-1.3L683.9,65h-57.2c1.1-1.4,2-2.9,2.7-4.5
		c0.7-1.6,1.4-3.8,2.1-6.6l10.7-42.6c0.8-3.2,1.2-5.7,1.2-7.6c0-1.1-0.1-2.3-0.4-3.6h56.2L698,12.5l-0.2-0.1
		c-1.6-0.5-3.1-0.9-4.6-1.2c-1.5-0.3-3.5-0.4-6-0.4h-20.2L663.2,26h17.7c2.4,0,4.4-0.1,6-0.4c1.6-0.3,3.4-0.7,5.3-1.3h0.2l-3.6,14.2
		l-0.1-0.1c-1.6-0.5-3.2-0.9-4.7-1.2c-1.5-0.3-3.5-0.4-5.9-0.4h-17.7l-4.4,17.5H677.6z"/>
	<path class="st1" d="M724.4,36.7l-4.3,17.1c-0.7,3.2-1.1,5.7-1.1,7.6c0,1.1,0.1,2.3,0.4,3.6h-28.8c1.1-1.4,2-2.9,2.7-4.5
		c0.7-1.6,1.4-3.8,2.1-6.6L706,11.2c0.7-2.9,1.1-5.2,1.1-6.9c0-1.5-0.3-2.9-0.9-4.3h53.4c4.7,0,8.3,0.7,10.6,2
		c2.3,1.4,3.5,3.7,3.5,7c0,1.5-0.3,3.2-0.8,5.3l-2.9,12c-0.6,2.3-1.3,4.1-2.2,5.5c-0.8,1.4-1.8,2.4-2.8,3c-1,0.6-2.1,1.1-3.2,1.3
		c-1.1,0.2-2.6,0.4-4.3,0.6l4.3,18.3c0.2,0.9,0.4,1.9,0.7,2.9c0.7,3.5,1.5,5.8,2.2,7h-27.7L732,36.7H724.4z M727.1,26h14
		c1.6,0,2.8-0.2,3.4-0.7c0.6-0.5,1.2-1.5,1.6-2.9l1.9-7.9c0.2-0.7,0.3-1.4,0.3-1.8c0-0.7-0.3-1.2-0.8-1.5c-0.5-0.2-1.4-0.4-2.7-0.4
		h-14L727.1,26z"/>
	<path class="st1" d="M769.8,65v-9.1h-3.4v-1.2h8.1v1.2h-3.4V65H769.8z"/>
	<path class="st1" d="M775.9,65V54.7h2l2.4,7.3c0.2,0.7,0.4,1.2,0.5,1.5c0.1-0.4,0.3-0.9,0.5-1.6l2.5-7.1h1.8V65h-1.3v-8.6l-3,8.6
		h-1.2l-3-8.7V65H775.9z"/>
</g>
<g>
	<path d="M317.8,76.9l-7.7,26.9c-2.7,9.5,3.2,12.9,12.1,12.9c10.5,0,14.5-3.4,17.1-12.8l7.8-26.9h7.4l-7.9,27.4
		c-3.5,12.2-9.6,17-25.2,17c-13.3,0-22.3-5.1-18.6-17.8l7.7-26.5H317.8z"/>
	<path d="M378,108c0.7,5.8,5.6,8.9,13.9,8.9c7.8,0,13-2.6,13-8c0-4-2.6-6.4-12.2-9.1c-11-3.1-14.9-6.2-14.9-11.3
		c0-6.4,6.1-12.2,19.4-12.2c13.2,0,18.8,5.6,18.9,12.1h-7.4c-0.7-4.5-3.6-7.6-12.1-7.6c-7.4,0-11.1,3.2-11.1,7c0,3,1.9,4.9,10.7,7.4
		c12.2,3.3,16.5,7.2,16.5,12.8c0,6.9-6,13.2-21.6,13.2c-13.7,0-20.4-5.5-20.7-13.3H378z"/>
	<path d="M450,107.3l-9.8,13.4h-7.9l32.8-43.8h8.9l8.9,43.8h-7.5l-2.7-13.4H450z M472.2,102.6c-2-10.3-3.4-17.4-3.7-20.9h-0.1
		c-2.6,3.9-8.1,11.4-15,20.9H472.2z"/>
</g>
</svg>
