<?xml version="1.0" encoding="utf-8"?>
<!-- Generator: Adobe Illustrator 24.0.1, SVG Export Plug-In . SVG Version: 6.00 Build 0)  -->
<svg version="1.1" id="Layer_1" xmlns="http://www.w3.org/2000/svg" xmlns:xlink="http://www.w3.org/1999/xlink" x="0px" y="0px"
	 viewBox="0 0 706 139.1" style="enable-background:new 0 0 706 139.1;" xml:space="preserve">
<style type="text/css">
	.st0{fill:none;stroke:#808080;stroke-miterlimit:10;}
	.st1{clip-path:url(#SVGID_2_);}
	.st2{clip-path:url(#SVGID_4_);}
	.st3{clip-path:url(#SVGID_6_);}
	.st4{clip-path:url(#SVGID_8_);fill:none;stroke:#000000;stroke-miterlimit:10;}
	.st5{clip-path:url(#SVGID_10_);fill:none;stroke:#000000;stroke-miterlimit:10;}
	.st6{clip-path:url(#SVGID_12_);fill:none;stroke:#000000;stroke-miterlimit:10;}
	.st7{clip-path:url(#SVGID_14_);fill:none;stroke:#000000;stroke-miterlimit:10;}
	.st8{fill:#009AC7;}
	.st9{fill:#808080;}
	.st10{clip-path:url(#SVGID_16_);fill:none;stroke:#808080;stroke-miterlimit:10;}
	.st11{clip-path:url(#SVGID_4_);fill:#231F20;stroke:#EF4136;stroke-width:6;stroke-miterlimit:10;}
	.st12{fill:#231F20;}
	.st13{fill:none;stroke:#231F20;stroke-width:0.5;stroke-miterlimit:10;}
</style>
<g>
	<line class="st0" x1="5.5" y1="136.8" x2="704.3" y2="136.8"/>
	<g>
		<defs>
			<rect id="SVGID_1_" y="58.8" width="706" height="69"/>
		</defs>
		<clipPath id="SVGID_2_">
			<use xlink:href="#SVGID_1_"  style="overflow:visible;"/>
		</clipPath>
		<g class="st1">
			<defs>
				<rect id="SVGID_3_" x="4" y="49.7" width="706.1" height="93.5"/>
			</defs>
			<clipPath id="SVGID_4_">
				<use xlink:href="#SVGID_3_"  style="overflow:visible;"/>
			</clipPath>
			<g class="st2">
				<defs>
					<rect id="SVGID_5_" x="2.6" y="57.2" width="703.3" height="112.5"/>
				</defs>
				<clipPath id="SVGID_6_">
					<use xlink:href="#SVGID_5_"  style="overflow:visible;"/>
				</clipPath>
				<g class="st3">
					<path d="M50.4,73.2l-20,27.4h26.6L50.4,73.2L50.4,73.2z M60.6,122.9c0.1-0.8,0.2-1.6,0.2-2.3c0-1.7-0.3-4-1-7l-1.9-8.3H27.1
						L20,115c-1.6,2.1-2.6,3.7-3.2,4.8c-0.6,1.1-1,2.1-1.3,3.1H7.9c2-1.8,3.8-3.9,5.6-6.2l35-47.9C48.2,68,48,67.4,47.7,67
						c-0.3-0.4-0.7-1-1.3-1.8H58l11.4,47.3c1.1,5,2.3,8.4,3.3,10.4H60.6L60.6,122.9z"/>
					<g>
						<defs>
							<rect id="SVGID_7_" x="6.9" y="64.8" width="696.4" height="187.9"/>
						</defs>
						<clipPath id="SVGID_8_">
							<use xlink:href="#SVGID_7_"  style="overflow:visible;"/>
						</clipPath>
						<path class="st4" d="M50.4,73.2l-20,27.4h26.6L50.4,73.2L50.4,73.2z M60.6,122.9c0.1-0.8,0.2-1.6,0.2-2.3c0-1.7-0.3-4-1-7
							l-1.9-8.3H27.1L20,115c-1.6,2.1-2.6,3.7-3.2,4.8c-0.6,1.1-1,2.1-1.3,3.1H7.9c2-1.8,3.8-3.9,5.6-6.2l35-47.9
							C48.2,68,48,67.4,47.7,67c-0.3-0.4-0.7-1-1.3-1.8H58l11.4,47.3c1.1,5,2.3,8.4,3.3,10.4H60.6L60.6,122.9z"/>
					</g>
					<path d="M133.9,65.2l-0.9,5.3c-1-0.2-2.4-0.3-4.1-0.4c-1.7-0.1-4-0.2-7-0.2H98.4l-5.5,21.8h21.4c2.9,0,5.3-0.1,7.1-0.2
						c1.8-0.1,3.4-0.3,4.9-0.4l-1.4,6c-1.5-0.2-3.1-0.3-4.8-0.5c-1.7-0.1-4-0.2-6.9-0.2H91.8l-5.4,21.8h23.5c3,0,5.4-0.1,7.2-0.2
						c1.8-0.1,3.2-0.3,4.3-0.4l-1.8,5.3H75.2c0.6-1.3,1.1-2.6,1.6-3.9c0.5-1.3,0.9-3,1.5-5.1l9.9-39.7c0.5-2,0.8-3.7,1.1-5.1
						c0.2-1.4,0.4-2.7,0.4-3.9H133.9L133.9,65.2z"/>
					<g>
						<defs>
							<rect id="SVGID_9_" x="6.9" y="64.8" width="696.4" height="187.9"/>
						</defs>
						<clipPath id="SVGID_10_">
							<use xlink:href="#SVGID_9_"  style="overflow:visible;"/>
						</clipPath>
						<path class="st5" d="M133.9,65.2l-0.9,5.3c-1-0.2-2.4-0.3-4.1-0.4c-1.7-0.1-4-0.2-7-0.2H98.4l-5.5,21.8h21.4
							c2.9,0,5.3-0.1,7.1-0.2c1.8-0.1,3.4-0.3,4.9-0.4l-1.4,6c-1.5-0.2-3.1-0.3-4.8-0.5c-1.7-0.1-4-0.2-6.9-0.2H91.8l-5.4,21.8h23.5
							c3,0,5.4-0.1,7.2-0.2c1.8-0.1,3.2-0.3,4.3-0.4l-1.8,5.3H75.2c0.6-1.3,1.1-2.6,1.6-3.9c0.5-1.3,0.9-3,1.5-5.1l9.9-39.7
							c0.5-2,0.8-3.7,1.1-5.1c0.2-1.4,0.4-2.7,0.4-3.9H133.9L133.9,65.2z"/>
					</g>
					<path d="M143.1,91.9h29.6c1.6,0,2.7-0.3,3.3-0.9c0.7-0.6,1.2-1.9,1.7-3.8l3.2-12.6c0.2-1.1,0.4-2,0.4-2.6
						c0-0.8-0.2-1.3-0.7-1.6c-0.5-0.3-1.2-0.5-2.4-0.5h-29.6L143.1,91.9L143.1,91.9z M141.9,96.6l-4.3,17.3
						c-0.5,2.2-0.9,3.9-1.1,5.2c-0.2,1.3-0.3,2.6-0.3,3.8h-10.8c0.6-1.3,1.1-2.6,1.6-3.9c0.5-1.3,0.9-3,1.5-5.1l9.9-39.7
						c0.5-2,0.8-3.7,1.1-5.1c0.2-1.4,0.4-2.7,0.4-3.9h39.9c3.8,0,6.5,0.5,8.2,1.4c1.7,0.9,2.5,2.5,2.5,4.9c0,1.4-0.2,3-0.7,5
						l-2.3,9.1c-1.1,4.3-2.7,7.3-4.7,8.8c-2,1.6-4.9,2.3-8.8,2.3v0.2c1.2,6.4,2.3,11.7,3.3,16c1,4.3,2.1,7.6,3.2,10.1h-10.6
						l-5.7-26.3H141.9L141.9,96.6z"/>
					<g>
						<defs>
							<rect id="SVGID_11_" x="6.9" y="64.8" width="696.4" height="187.9"/>
						</defs>
						<clipPath id="SVGID_12_">
							<use xlink:href="#SVGID_11_"  style="overflow:visible;"/>
						</clipPath>
						<path class="st6" d="M143.1,91.9h29.6c1.6,0,2.7-0.3,3.3-0.9c0.7-0.6,1.2-1.9,1.7-3.8l3.2-12.6c0.2-1.1,0.4-2,0.4-2.6
							c0-0.8-0.2-1.3-0.7-1.6c-0.5-0.3-1.2-0.5-2.4-0.5h-29.6L143.1,91.9L143.1,91.9z M141.9,96.6l-4.3,17.3
							c-0.5,2.2-0.9,3.9-1.1,5.2c-0.2,1.3-0.3,2.6-0.3,3.8h-10.8c0.6-1.3,1.1-2.6,1.6-3.9c0.5-1.3,0.9-3,1.5-5.1l9.9-39.7
							c0.5-2,0.8-3.7,1.1-5.1c0.2-1.4,0.4-2.7,0.4-3.9h39.9c3.8,0,6.5,0.5,8.2,1.4c1.7,0.9,2.5,2.5,2.5,4.9c0,1.4-0.2,3-0.7,5
							l-2.3,9.1c-1.1,4.3-2.7,7.3-4.7,8.8c-2,1.6-4.9,2.3-8.8,2.3v0.2c1.2,6.4,2.3,11.7,3.3,16c1,4.3,2.1,7.6,3.2,10.1h-10.6
							l-5.7-26.3H141.9L141.9,96.6z"/>
					</g>
					<path d="M240.7,74.6c0.2-1.1,0.4-2,0.4-2.6c0-0.8-0.2-1.3-0.7-1.6c-0.5-0.3-1.2-0.5-2.4-0.5h-26.4c-1.6,0-2.8,0.3-3.4,0.9
						c-0.7,0.6-1.2,1.9-1.6,3.8l-9.7,38.9c-0.3,1.1-0.5,2-0.5,2.6c0,0.8,0.2,1.3,0.7,1.6c0.5,0.3,1.3,0.5,2.4,0.5h26.4
						c1.6,0,2.7-0.3,3.3-0.9c0.7-0.6,1.2-1.9,1.7-3.8L240.7,74.6L240.7,74.6z M240.3,65.2c3.4,0,5.9,0.6,7.4,1.8
						c1.5,1.2,2.3,3,2.3,5.3c0,1.1-0.2,2.4-0.5,3.9l-8.9,35.7c-0.8,3.5-2.4,6.2-4.7,8.1c-2.3,1.9-5.6,2.9-10,2.9h-28.6
						c-3.5,0-6-0.6-7.5-1.8c-1.5-1.2-2.3-3-2.3-5.3c0-1.1,0.2-2.4,0.5-3.9l8.9-35.7c0.9-3.6,2.5-6.3,4.8-8.2c2.3-1.9,5.6-2.8,10-2.8
						H240.3L240.3,65.2z"/>
					<g>
						<defs>
							<rect id="SVGID_13_" x="6.9" y="64.8" width="696.4" height="187.9"/>
						</defs>
						<clipPath id="SVGID_14_">
							<use xlink:href="#SVGID_13_"  style="overflow:visible;"/>
						</clipPath>
						<path class="st7" d="M240.7,74.6c0.2-1.1,0.4-2,0.4-2.6c0-0.8-0.2-1.3-0.7-1.6c-0.5-0.3-1.2-0.5-2.4-0.5h-26.4
							c-1.6,0-2.8,0.3-3.4,0.9c-0.7,0.6-1.2,1.9-1.6,3.8l-9.7,38.9c-0.3,1.1-0.5,2-0.5,2.6c0,0.8,0.2,1.3,0.7,1.6
							c0.5,0.3,1.3,0.5,2.4,0.5h26.4c1.6,0,2.7-0.3,3.3-0.9c0.7-0.6,1.2-1.9,1.7-3.8L240.7,74.6L240.7,74.6z M240.3,65.2
							c3.4,0,5.9,0.6,7.4,1.8c1.5,1.2,2.3,3,2.3,5.3c0,1.1-0.2,2.4-0.5,3.9l-8.9,35.7c-0.8,3.5-2.4,6.2-4.7,8.1
							c-2.3,1.9-5.6,2.9-10,2.9h-28.6c-3.5,0-6-0.6-7.5-1.8c-1.5-1.2-2.3-3-2.3-5.3c0-1.1,0.2-2.4,0.5-3.9l8.9-35.7
							c0.9-3.6,2.5-6.3,4.8-8.2c2.3-1.9,5.6-2.8,10-2.8H240.3L240.3,65.2z"/>
					</g>
					<path class="st8" d="M277.1,88.3h12.8c1.4,0,2.4-0.2,3-0.6c0.6-0.4,1-1.3,1.4-2.6l1.7-7c0.2-0.7,0.3-1.2,0.3-1.6
						c0-0.7-0.2-1.1-0.7-1.3c-0.5-0.2-1.2-0.3-2.4-0.3h-12.8L277.1,88.3L277.1,88.3z M270.8,113.4h12.8c1.4,0,2.5-0.2,3.1-0.6
						c0.6-0.4,1.1-1.3,1.4-2.6l2.3-9c0.2-0.7,0.3-1.2,0.3-1.6c0-0.7-0.2-1.1-0.7-1.3c-0.5-0.2-1.2-0.3-2.4-0.3h-12.8L270.8,113.4
						L270.8,113.4z M258.4,75.1c0.7-2.8,1.1-5.1,1.1-6.8c0-1-0.1-2-0.4-3.2h47.2c4.5,0,7.7,0.7,9.6,2c1.9,1.3,2.9,3.2,2.9,5.8
						c0,1.1-0.2,2.5-0.5,4.1l-1.6,6.6c-0.9,3.4-2.5,5.7-4.7,6.9c-2.2,1.2-5.6,1.9-10.2,2.3v0.2c4.1,0.5,6.9,1.2,8.5,1.9
						c1.6,0.7,2.3,2,2.3,3.7c0,0.8-0.2,1.7-0.5,2.8l-2.3,9.6c-1,3.9-2.8,6.9-5.4,8.9c-2.6,2-6.8,3-12.5,3h-47.2c1-1.3,1.8-2.6,2.4-4
						c0.6-1.4,1.2-3.4,1.8-5.9L258.4,75.1L258.4,75.1z"/>
					<path class="st8" d="M355.9,97.9l-3.3-19.5l-13.7,19.5H355.9L355.9,97.9z M332,107.4l-5.9,7.9c-0.8,1.1-1.4,2.2-1.6,3.4
						c-0.2,0.9-0.4,1.5-0.4,1.9c0,0.4,0.2,1.2,0.5,2.3h-16.3c1.1-1.1,2.1-2,2.9-2.8c0.8-0.8,1.5-1.6,2.2-2.3
						c0.7-0.7,1.3-1.5,1.9-2.3c0.6-0.7,1.4-1.8,2.3-3l32-44l-1.7-3.2H374l8.1,49.8c0.5,3,1.6,5.6,3.1,7.9h-28.9
						c0.9-1.1,1.5-1.9,1.7-2.3c0.2-0.4,0.4-0.9,0.6-1.5c0.2-1,0.4-2,0.4-3c0-0.2,0-0.4-0.1-0.7c-0.1-0.3-0.1-0.5-0.1-0.6l-1.3-7.4
						H332L332,107.4z"/>
					<path class="st8" d="M419.1,88.3h12.4c1.4,0,2.4-0.2,3-0.6c0.6-0.4,1-1.3,1.4-2.6l1.7-7c0.2-0.7,0.3-1.2,0.3-1.6
						c0-0.7-0.2-1.1-0.7-1.3c-0.4-0.2-1.2-0.3-2.4-0.3h-12.4L419.1,88.3L419.1,88.3z M416.6,97.9l-3.8,15.1c-0.7,2.8-1,5.1-1,6.8
						c0,1,0.1,2,0.4,3.2h-25.6c1-1.3,1.8-2.6,2.4-4c0.6-1.4,1.2-3.4,1.8-5.9l9.5-37.9c0.7-2.6,1-4.6,1-6.1c0-1.3-0.3-2.6-0.8-3.8
						h47.4c4.2,0,7.3,0.6,9.4,1.8c2,1.2,3.1,3.3,3.1,6.2c0,1.3-0.2,2.9-0.7,4.7L457,88.6c-0.5,2-1.2,3.7-1.9,4.9
						c-0.8,1.2-1.6,2.1-2.5,2.7c-0.9,0.6-1.9,1-2.9,1.2c-1,0.2-2.3,0.4-3.8,0.5l3.8,16.2c0.2,0.8,0.4,1.7,0.6,2.6
						c0.7,3.1,1.3,5.1,2,6.2h-24.6l-4.2-25.1H416.6L416.6,97.9z"/>
					<path class="st8" d="M489.2,88.3h12.4c1.4,0,2.4-0.2,3-0.6c0.6-0.4,1-1.3,1.4-2.6l1.7-7c0.2-0.7,0.3-1.2,0.3-1.6
						c0-0.7-0.2-1.1-0.7-1.3c-0.4-0.2-1.2-0.3-2.4-0.3h-12.4L489.2,88.3L489.2,88.3z M486.8,97.9L483,113c-0.7,2.8-1,5.1-1,6.8
						c0,1,0.1,2,0.4,3.2h-25.6c1-1.3,1.8-2.6,2.4-4c0.6-1.4,1.2-3.4,1.8-5.9l9.5-37.9c0.7-2.6,1-4.6,1-6.1c0-1.3-0.3-2.6-0.8-3.8
						h47.4c4.2,0,7.3,0.6,9.4,1.8c2,1.2,3.1,3.3,3.1,6.2c0,1.3-0.2,2.9-0.7,4.7l-2.6,10.6c-0.5,2-1.2,3.7-1.9,4.9
						c-0.8,1.2-1.6,2.1-2.5,2.7c-0.9,0.6-1.9,1-2.9,1.2c-1,0.2-2.3,0.4-3.8,0.5l3.8,16.2c0.2,0.8,0.4,1.7,0.6,2.6
						c0.7,3.1,1.3,5.1,2,6.2h-24.6l-4.2-25.1H486.8L486.8,97.9z"/>
					<path class="st8" d="M528.5,122.9c1-1.3,1.8-2.6,2.4-4c0.6-1.4,1.2-3.4,1.8-5.9l9.5-37.9c0.7-2.8,1.1-5.1,1.1-6.8
						c0-1-0.1-2-0.4-3.2h25.6c-1,1.3-1.8,2.6-2.4,4c-0.6,1.4-1.3,3.4-1.9,5.9l-9.5,37.9c-0.7,2.8-1,5.1-1,6.8c0,1,0.1,2,0.4,3.2
						H528.5L528.5,122.9z"/>
					<path class="st8" d="M607.2,113.4c2.3,0,4.2-0.1,5.7-0.4c1.4-0.3,3-0.6,4.7-1.1l-4.8,11.1H562c1-1.3,1.8-2.6,2.4-4
						c0.6-1.4,1.2-3.4,1.8-5.9l9.5-37.9c0.7-2.8,1.1-5.1,1.1-6.8c0-1-0.1-2-0.4-3.2h50l-1,11.1l-0.2-0.1c-1.4-0.5-2.8-0.8-4.1-1.1
						c-1.4-0.2-3.1-0.4-5.4-0.4h-17.9l-3.3,13.5h15.7c2.2,0,4-0.1,5.4-0.4c1.4-0.2,3-0.6,4.7-1.2h0.2l-3.2,12.6l-0.1-0.1
						c-1.4-0.5-2.8-0.8-4.2-1.1c-1.4-0.2-3.1-0.4-5.3-0.4H592l-3.9,15.5H607.2L607.2,113.4z"/>
					<path class="st8" d="M651.2,88.3h12.4c1.4,0,2.4-0.2,3-0.6c0.6-0.4,1-1.3,1.4-2.6l1.7-7c0.2-0.7,0.3-1.2,0.3-1.6
						c0-0.7-0.2-1.1-0.7-1.3c-0.5-0.2-1.2-0.3-2.4-0.3h-12.4L651.2,88.3L651.2,88.3z M648.8,97.9L645,113c-0.7,2.8-1,5.1-1,6.8
						c0,1,0.1,2,0.4,3.2h-25.6c1-1.3,1.8-2.6,2.4-4c0.6-1.4,1.2-3.4,1.9-5.9l9.5-37.9c0.7-2.6,1-4.6,1-6.1c0-1.3-0.3-2.6-0.8-3.8
						h47.4c4.2,0,7.3,0.6,9.4,1.8c2,1.2,3.1,3.3,3.1,6.2c0,1.3-0.2,2.9-0.7,4.7l-2.6,10.6c-0.5,2-1.2,3.7-1.9,4.9
						c-0.8,1.2-1.6,2.1-2.5,2.7c-0.9,0.6-1.9,1-2.9,1.2c-1,0.2-2.3,0.4-3.8,0.5l3.8,16.2c0.2,0.8,0.4,1.7,0.6,2.6
						c0.7,3.1,1.3,5.1,2,6.2h-24.6l-4.2-25.1H648.8L648.8,97.9z"/>
					<polygon class="st8" points="689.2,122.9 689.2,114.9 686.2,114.9 686.2,113.8 693.4,113.8 693.4,114.9 690.4,114.9 
						690.4,122.9 689.2,122.9 					"/>
					<path class="st8" d="M694.6,122.9v-9.1h1.8l2.2,6.5c0.2,0.6,0.3,1.1,0.4,1.4c0.1-0.3,0.3-0.8,0.5-1.5l2.2-6.4h1.6v9.1h-1.2
						v-7.6l-2.7,7.6h-1.1l-2.6-7.8v7.8H694.6L694.6,122.9z"/>
					<line class="st9" x1="7.9" y1="137.5" x2="703.3" y2="137.5"/>
					<g>
						<defs>
							<rect id="SVGID_15_" x="6.9" y="64.8" width="696.4" height="187.9"/>
						</defs>
						<clipPath id="SVGID_16_">
							<use xlink:href="#SVGID_15_"  style="overflow:visible;"/>
						</clipPath>
						<line class="st10" x1="7.9" y1="137.5" x2="703.3" y2="137.5"/>
					</g>
					<g>
						<path class="st9" d="M138.1,150.4c0.8-0.2,2.1-0.3,3.4-0.3c1.9,0,3,0.3,3.9,1c0.7,0.6,1.2,1.4,1.2,2.5c0,1.4-0.9,2.6-2.4,3.2
							v0.1c1.4,0.3,3,1.4,3,3.6c0,1.2-0.5,2.2-1.2,2.9c-1,0.9-2.6,1.3-4.9,1.3c-1.3,0-2.3-0.1-2.9-0.2V150.4z M139.9,156.3h1.7
							c1.9,0,3.1-1,3.1-2.4c0-1.7-1.3-2.3-3.1-2.3c-0.9,0-1.3,0.1-1.6,0.1V156.3z M139.9,163.1c0.4,0.1,0.9,0.1,1.6,0.1
							c1.9,0,3.7-0.7,3.7-2.8c0-1.9-1.7-2.8-3.7-2.8h-1.5V163.1z"/>
						<path class="st9" d="M149.6,157.4c0-1.2,0-2.3-0.1-3.2h1.6l0.1,2h0.1c0.5-1.4,1.6-2.3,2.9-2.3c0.2,0,0.3,0,0.5,0v1.8
							c-0.2,0-0.4,0-0.6,0c-1.3,0-2.3,1-2.5,2.4c0,0.3-0.1,0.6-0.1,0.9v5.5h-1.9V157.4z"/>
						<path class="st9" d="M157.6,159.7c0,2.5,1.6,3.6,3.5,3.6c1.3,0,2.2-0.2,2.9-0.5l0.3,1.3c-0.7,0.3-1.8,0.7-3.5,0.7
							c-3.2,0-5.1-2.1-5.1-5.2c0-3.1,1.8-5.5,4.8-5.5c3.4,0,4.3,2.9,4.3,4.8c0,0.4,0,0.7-0.1,0.9H157.6z M163.1,158.4
							c0-1.2-0.5-3-2.6-3c-1.9,0-2.7,1.7-2.9,3H163.1z"/>
						<path class="st9" d="M174.5,162.1c0,0.9,0,1.8,0.1,2.5h-1.7l-0.1-1.3h-0.1c-0.6,0.8-1.7,1.5-3.2,1.5c-2.1,0-3.2-1.5-3.2-3
							c0-2.5,2.2-3.9,6.2-3.8v-0.2c0-0.8-0.2-2.4-2.3-2.4c-1,0-2,0.3-2.7,0.8l-0.4-1.3c0.9-0.5,2.1-0.9,3.4-0.9
							c3.2,0,3.9,2.2,3.9,4.2V162.1z M172.6,159.3c-2,0-4.4,0.3-4.4,2.3c0,1.2,0.8,1.8,1.7,1.8c1.4,0,2.2-0.9,2.5-1.7
							c0.1-0.2,0.1-0.4,0.1-0.6V159.3z"/>
						<path class="st9" d="M179.3,159L179.3,159c0.3-0.4,0.6-0.8,0.9-1.2l3-3.6h2.2l-4,4.2l4.5,6.1h-2.3l-3.5-4.9l-1,1.1v3.9h-1.9
							v-15.1h1.9V159z"/>
						<path class="st9" d="M189.7,151.7v2.5h2.7v1.4h-2.7v5.6c0,1.3,0.4,2,1.4,2c0.5,0,0.8,0,1.1-0.1l0.1,1.4
							c-0.4,0.1-0.9,0.3-1.7,0.3c-0.9,0-1.6-0.3-2-0.8c-0.5-0.6-0.7-1.5-0.7-2.7v-5.6h-1.6v-1.4h1.6v-1.9L189.7,151.7z"/>
						<path class="st9" d="M194.5,149.4h1.9v6.5h0c0.3-0.5,0.8-1,1.3-1.3c0.6-0.3,1.2-0.5,1.9-0.5c1.4,0,3.6,0.9,3.6,4.4v6.1h-1.9
							v-5.9c0-1.7-0.6-3-2.4-3c-1.2,0-2.2,0.9-2.5,1.9c-0.1,0.3-0.1,0.6-0.1,0.9v6.2h-1.9V149.4z"/>
						<path class="st9" d="M206.4,157.4c0-1.2,0-2.3-0.1-3.2h1.6l0.1,2h0.1c0.5-1.4,1.6-2.3,2.9-2.3c0.2,0,0.3,0,0.5,0v1.8
							c-0.2,0-0.4,0-0.6,0c-1.3,0-2.3,1-2.5,2.4c0,0.3-0.1,0.6-0.1,0.9v5.5h-1.9V157.4z"/>
						<path class="st9" d="M222.7,159.3c0,3.8-2.7,5.5-5.1,5.5c-2.8,0-4.9-2-4.9-5.3c0-3.4,2.3-5.5,5.1-5.5
							C220.7,154,222.7,156.2,222.7,159.3z M214.5,159.4c0,2.3,1.3,4,3.1,4c1.8,0,3.1-1.7,3.1-4c0-1.7-0.9-3.9-3.1-3.9
							C215.5,155.4,214.5,157.5,214.5,159.4z"/>
						<path class="st9" d="M233.7,161.7c0,1.1,0,2,0.1,2.8h-1.7l-0.1-1.7h0c-0.5,0.8-1.6,1.9-3.4,1.9c-1.6,0-3.6-0.9-3.6-4.5v-6h1.9
							v5.7c0,2,0.6,3.3,2.3,3.3c1.3,0,2.1-0.9,2.5-1.7c0.1-0.3,0.2-0.6,0.2-1v-6.3h1.9V161.7z"/>
						<path class="st9" d="M245.6,163c0,2.4-0.5,3.8-1.5,4.7c-1,0.9-2.5,1.2-3.8,1.2c-1.2,0-2.6-0.3-3.4-0.9l0.5-1.4
							c0.7,0.4,1.7,0.8,3,0.8c1.9,0,3.3-1,3.3-3.6v-1.1h0c-0.6,1-1.7,1.7-3.3,1.7c-2.6,0-4.4-2.2-4.4-5c0-3.5,2.3-5.5,4.7-5.5
							c1.8,0,2.7,0.9,3.2,1.8h0l0.1-1.6h1.7c-0.1,0.7-0.1,1.6-0.1,2.8V163z M243.7,158.3c0-0.3,0-0.6-0.1-0.8c-0.3-1.1-1.2-2-2.6-2
							c-1.8,0-3.1,1.5-3.1,3.9c0,2,1,3.7,3,3.7c1.2,0,2.2-0.7,2.6-1.9c0.1-0.3,0.1-0.7,0.1-1V158.3z"/>
						<path class="st9" d="M248.7,149.4h1.9v6.5h0c0.3-0.5,0.8-1,1.3-1.3c0.6-0.3,1.2-0.5,1.9-0.5c1.4,0,3.6,0.9,3.6,4.4v6.1h-1.9
							v-5.9c0-1.7-0.6-3-2.4-3c-1.2,0-2.2,0.9-2.5,1.9c-0.1,0.3-0.1,0.6-0.1,0.9v6.2h-1.9V149.4z"/>
						<path class="st9" d="M272.6,157.8H267v5.2h6.2v1.6h-8.1v-14.4h7.8v1.6H267v4.5h5.6V157.8z"/>
						<path class="st9" d="M275.6,157c0-1.1,0-1.9-0.1-2.8h1.7l0.1,1.7h0c0.5-1,1.7-1.9,3.4-1.9c1.4,0,3.6,0.9,3.6,4.4v6.1h-1.9
							v-5.9c0-1.7-0.6-3-2.4-3c-1.2,0-2.2,0.9-2.5,1.9c-0.1,0.2-0.1,0.6-0.1,0.9v6.2h-1.9V157z"/>
						<path class="st9" d="M288.1,154.2l2,5.8c0.3,1,0.6,1.8,0.8,2.7h0.1c0.2-0.9,0.5-1.7,0.9-2.7l2-5.8h2l-4.1,10.3H290l-3.9-10.3
							H288.1z"/>
						<path class="st9" d="M298.7,159.7c0,2.5,1.6,3.6,3.5,3.6c1.3,0,2.2-0.2,2.9-0.5l0.3,1.3c-0.7,0.3-1.8,0.7-3.5,0.7
							c-3.2,0-5.1-2.1-5.1-5.2c0-3.1,1.8-5.5,4.8-5.5c3.4,0,4.3,2.9,4.3,4.8c0,0.4,0,0.7-0.1,0.9H298.7z M304.2,158.4
							c0-1.2-0.5-3-2.6-3c-1.9,0-2.7,1.7-2.9,3H304.2z"/>
						<path class="st9" d="M308.3,149.4h1.9v15.1h-1.9V149.4z"/>
						<path class="st9" d="M322.7,159.3c0,3.8-2.7,5.5-5.1,5.5c-2.8,0-4.9-2-4.9-5.3c0-3.4,2.3-5.5,5.1-5.5
							C320.7,154,322.7,156.2,322.7,159.3z M314.5,159.4c0,2.3,1.3,4,3.1,4c1.8,0,3.1-1.7,3.1-4c0-1.7-0.9-3.9-3.1-3.9
							C315.5,155.4,314.5,157.5,314.5,159.4z"/>
						<path class="st9" d="M325.1,157.6c0-1.3,0-2.4-0.1-3.4h1.7l0.1,1.8h0c0.7-1.3,2-2,3.7-2c2.5,0,4.4,2.1,4.4,5.2
							c0,3.7-2.3,5.5-4.7,5.5c-1.4,0-2.6-0.6-3.2-1.6h0v5.6h-1.9V157.6z M326.9,160.3c0,0.3,0,0.5,0.1,0.8c0.3,1.3,1.5,2.2,2.8,2.2
							c2,0,3.1-1.6,3.1-4c0-2-1.1-3.8-3.1-3.8c-1.3,0-2.5,0.9-2.8,2.3c-0.1,0.2-0.1,0.5-0.1,0.7V160.3z"/>
						<path class="st9" d="M338.2,159.7c0,2.5,1.6,3.6,3.5,3.6c1.3,0,2.2-0.2,2.9-0.5l0.3,1.3c-0.7,0.3-1.8,0.7-3.5,0.7
							c-3.2,0-5.1-2.1-5.1-5.2c0-3.1,1.8-5.5,4.8-5.5c3.4,0,4.3,2.9,4.3,4.8c0,0.4,0,0.7-0.1,0.9H338.2z M343.7,158.4
							c0-1.2-0.5-3-2.6-3c-1.9,0-2.7,1.7-2.9,3H343.7z"/>
						<path class="st9" d="M352.2,162.3c0.8,0.5,2,0.9,3.3,0.9c1.9,0,3-1,3-2.5c0-1.3-0.8-2.1-2.7-2.8c-2.3-0.9-3.8-2.1-3.8-4.1
							c0-2.2,1.9-3.9,4.6-3.9c1.4,0,2.5,0.3,3.2,0.7l-0.5,1.5c-0.4-0.3-1.4-0.7-2.7-0.7c-2,0-2.7,1.2-2.7,2.2c0,1.3,0.9,2,2.9,2.8
							c2.4,0.9,3.6,2.1,3.6,4.2c0,2.2-1.6,4.2-5,4.2c-1.4,0-2.9-0.4-3.7-0.9L352.2,162.3z"/>
						<path class="st9" d="M364,159.7c0,2.5,1.6,3.6,3.5,3.6c1.3,0,2.2-0.2,2.9-0.5l0.3,1.3c-0.7,0.3-1.8,0.7-3.5,0.7
							c-3.2,0-5.1-2.1-5.1-5.2c0-3.1,1.8-5.5,4.8-5.5c3.4,0,4.3,2.9,4.3,4.8c0,0.4,0,0.7-0.1,0.9H364z M369.5,158.4
							c0-1.2-0.5-3-2.6-3c-1.9,0-2.7,1.7-2.9,3H369.5z"/>
						<path class="st9" d="M380.8,162.1c0,0.9,0,1.8,0.1,2.5h-1.7l-0.1-1.3h-0.1c-0.6,0.8-1.7,1.5-3.2,1.5c-2.1,0-3.2-1.5-3.2-3
							c0-2.5,2.2-3.9,6.2-3.8v-0.2c0-0.8-0.2-2.4-2.3-2.4c-1,0-2,0.3-2.7,0.8l-0.4-1.3c0.9-0.5,2.1-0.9,3.4-0.9
							c3.2,0,3.9,2.2,3.9,4.2V162.1z M379,159.3c-2,0-4.4,0.3-4.4,2.3c0,1.2,0.8,1.8,1.7,1.8c1.4,0,2.2-0.9,2.5-1.7
							c0.1-0.2,0.1-0.4,0.1-0.6V159.3z"/>
						<path class="st9" d="M383.9,149.4h1.9v15.1h-1.9V149.4z"/>
						<path class="st9" d="M391,151.3c0,0.6-0.4,1.2-1.2,1.2c-0.7,0-1.1-0.5-1.1-1.2c0-0.6,0.5-1.2,1.2-1.2
							C390.5,150.1,391,150.7,391,151.3z M388.9,164.5v-10.3h1.9v10.3H388.9z"/>
						<path class="st9" d="M393.9,157c0-1.1,0-1.9-0.1-2.8h1.7l0.1,1.7h0c0.5-1,1.7-1.9,3.4-1.9c1.4,0,3.6,0.9,3.6,4.4v6.1h-1.9
							v-5.9c0-1.7-0.6-3-2.4-3c-1.2,0-2.2,0.9-2.5,1.9c-0.1,0.2-0.1,0.6-0.1,0.9v6.2h-1.9V157z"/>
						<path class="st9" d="M414.5,163c0,2.4-0.5,3.8-1.5,4.7c-1,0.9-2.5,1.2-3.8,1.2c-1.2,0-2.6-0.3-3.4-0.9l0.5-1.4
							c0.7,0.4,1.7,0.8,3,0.8c1.9,0,3.3-1,3.3-3.6v-1.1h0c-0.6,1-1.7,1.7-3.3,1.7c-2.6,0-4.4-2.2-4.4-5c0-3.5,2.3-5.5,4.7-5.5
							c1.8,0,2.8,0.9,3.2,1.8h0l0.1-1.6h1.7c-0.1,0.7-0.1,1.6-0.1,2.8V163z M412.7,158.3c0-0.3,0-0.6-0.1-0.8c-0.3-1.1-1.2-2-2.6-2
							c-1.8,0-3.1,1.5-3.1,3.9c0,2,1,3.7,3,3.7c1.2,0,2.2-0.7,2.6-1.9c0.1-0.3,0.1-0.7,0.1-1V158.3z"/>
						<path class="st9" d="M425,151.7h-4.4v-1.6h10.6v1.6h-4.4v12.8H425V151.7z"/>
						<path class="st9" d="M433.8,159.7c0,2.5,1.6,3.6,3.5,3.6c1.3,0,2.2-0.2,2.9-0.5l0.3,1.3c-0.7,0.3-1.8,0.7-3.5,0.7
							c-3.2,0-5.1-2.1-5.1-5.2c0-3.1,1.8-5.5,4.8-5.5c3.4,0,4.3,2.9,4.3,4.8c0,0.4,0,0.7-0.1,0.9H433.8z M439.3,158.4
							c0-1.2-0.5-3-2.6-3c-1.9,0-2.7,1.7-2.9,3H439.3z"/>
						<path class="st9" d="M450.8,164.2c-0.5,0.2-1.6,0.6-3,0.6c-3.1,0-5.1-2.1-5.1-5.3c0-3.2,2.2-5.5,5.5-5.5
							c1.1,0,2.1,0.3,2.6,0.6l-0.4,1.4c-0.4-0.2-1.2-0.5-2.2-0.5c-2.4,0-3.6,1.8-3.6,3.9c0,2.4,1.5,3.9,3.6,3.9
							c1.1,0,1.8-0.3,2.3-0.5L450.8,164.2z"/>
						<path class="st9" d="M453,149.4h1.9v6.5h0c0.3-0.5,0.8-1,1.3-1.3c0.6-0.3,1.2-0.5,1.9-0.5c1.4,0,3.6,0.9,3.6,4.4v6.1h-1.9
							v-5.9c0-1.7-0.6-3-2.4-3c-1.2,0-2.2,0.9-2.5,1.9c-0.1,0.3-0.1,0.6-0.1,0.9v6.2H453V149.4z"/>
						<path class="st9" d="M464.8,157c0-1.1,0-1.9-0.1-2.8h1.7l0.1,1.7h0c0.5-1,1.7-1.9,3.4-1.9c1.4,0,3.6,0.9,3.6,4.4v6.1h-1.9
							v-5.9c0-1.7-0.6-3-2.4-3c-1.2,0-2.2,0.9-2.5,1.9c-0.1,0.2-0.1,0.6-0.1,0.9v6.2h-1.9V157z"/>
						<path class="st9" d="M486,159.3c0,3.8-2.7,5.5-5.1,5.5c-2.8,0-4.9-2-4.9-5.3c0-3.4,2.3-5.5,5.1-5.5
							C484,154,486,156.2,486,159.3z M477.8,159.4c0,2.3,1.3,4,3.1,4c1.8,0,3.1-1.7,3.1-4c0-1.7-0.9-3.9-3.1-3.9
							C478.8,155.4,477.8,157.5,477.8,159.4z"/>
						<path class="st9" d="M488.4,149.4h1.9v15.1h-1.9V149.4z"/>
						<path class="st9" d="M502.7,159.3c0,3.8-2.7,5.5-5.1,5.5c-2.8,0-4.9-2-4.9-5.3c0-3.4,2.3-5.5,5.1-5.5
							C500.7,154,502.7,156.2,502.7,159.3z M494.6,159.4c0,2.3,1.3,4,3.1,4c1.8,0,3.1-1.7,3.1-4c0-1.7-0.9-3.9-3.1-3.9
							C495.5,155.4,494.6,157.5,494.6,159.4z"/>
						<path class="st9" d="M513.9,163c0,2.4-0.5,3.8-1.5,4.7c-1,0.9-2.5,1.2-3.8,1.2c-1.2,0-2.6-0.3-3.4-0.9l0.5-1.4
							c0.7,0.4,1.7,0.8,3,0.8c1.9,0,3.3-1,3.3-3.6v-1.1h0c-0.6,1-1.7,1.7-3.3,1.7c-2.6,0-4.4-2.2-4.4-5c0-3.5,2.3-5.5,4.7-5.5
							c1.8,0,2.8,0.9,3.2,1.8h0l0.1-1.6h1.7c-0.1,0.7-0.1,1.6-0.1,2.8V163z M512,158.3c0-0.3,0-0.6-0.1-0.8c-0.3-1.1-1.2-2-2.6-2
							c-1.8,0-3.1,1.5-3.1,3.9c0,2,1,3.7,3,3.7c1.2,0,2.2-0.7,2.6-1.9c0.1-0.3,0.1-0.7,0.1-1V158.3z"/>
						<path class="st9" d="M517.7,154.2l2.2,6.1c0.3,0.7,0.5,1.5,0.7,2.1h0c0.2-0.6,0.4-1.4,0.7-2.2l2-6.1h2l-2.8,7.4
							c-1.3,3.5-2.3,5.3-3.5,6.5c-0.9,0.8-1.8,1.1-2.3,1.2l-0.5-1.6c0.5-0.1,1.1-0.4,1.6-0.9c0.5-0.4,1.1-1.1,1.6-2.1
							c0.1-0.2,0.1-0.3,0.1-0.4c0-0.1,0-0.3-0.1-0.5l-3.8-9.5H517.7z"/>
					</g>
				</g>
			</g>
			<line class="st11" x1="9.5" y1="175.8" x2="313" y2="175.8"/>
		</g>
	</g>
</g>
<g>
	<path class="st12" d="M118,31.2l14-29.6h6.6l3.5,29.6h-6l-0.7-7.4h-8.6l-3.3,7.4H118z M134,7.5l-5.2,11.7h6.4l-1-11.7H134z"/>
	<path class="st12" d="M167.1,31.2h-5.3l0.6-3.4h-0.3c-0.9,1.8-3.2,3.8-6.6,3.8c-4.2,0-6.5-2.8-5.6-8.2l2.7-15.2h5.5l-2.4,13.6
		c-0.6,3.7,1,4.7,2.9,4.7c2.2,0,4.1-1.6,4.7-4.7l2.4-13.6h5.4L167.1,31.2z"/>
	<path class="st12" d="M182.7,2.6h5.3l-1,5.4h4l-0.8,4.7h-4l-1.9,10.9c-0.4,2.2,0.4,2.9,2.4,2.9c0.4,0,0.9,0,1.1,0l-0.8,4.5
		c-0.4,0.1-1.4,0.2-2.5,0.2c-5.2,0-6.7-1.9-5.8-6.7l2.1-11.8h-2.9l0.8-4.7h3.1L182.7,2.6z"/>
	<path class="st12" d="M200.7,0h5.4l-2,11.5h0.2c0.9-1.6,3.1-3.8,6.6-3.8c4.1,0,6.5,2.9,5.5,8.6l-2.6,14.9h-5.4l2.4-13.5
		c0.6-3.5-0.9-4.8-3-4.8c-2.5,0-4.2,2-4.8,4.9l-2.4,13.4h-5.4L200.7,0z"/>
	<path class="st12" d="M242.9,18.7l-0.3,1.6c-1.2,6.8-5.4,11.2-11.5,11.2c-6.1,0-8.8-4.4-7.6-11.2l0.3-1.6
		c1.1-6.4,5.4-11.1,11.5-11.1C241.5,7.7,244,12.3,242.9,18.7z M229.4,18.7l-0.3,1.8c-0.6,3.4,0,6.4,2.9,6.4c2.9,0,4.6-2.9,5.2-6.4
		l0.3-1.8c0.6-3.6-0.1-6.4-2.9-6.4C231.7,12.3,230,15.2,229.4,18.7z"/>
	<path class="st12" d="M252.8,8.1h5.5l-0.6,3.3h0.2c0.7-1.5,2.6-3.6,5.4-3.6c0.8,0,1.3,0.1,1.7,0.2l-0.9,5.2
		c-0.4-0.2-1.2-0.2-2.1-0.2c-3.3,0-4.8,2.2-5.4,5.3l-2.3,12.9h-5.6L252.8,8.1z"/>
	<path class="st12" d="M272.6,8.1h5.4L274,31.2h-5.4L272.6,8.1z M276.9-0.8c1.7,0,2.8,1.3,2.5,3.1c-0.3,1.9-1.9,3.1-3.6,3.1
		c-1.7,0-2.8-1.3-2.5-3.1C273.6,0.5,275.2-0.8,276.9-0.8z"/>
	<path class="st12" d="M282.9,27.6l12.2-14.6l0-0.2h-9.5l0.8-4.8h16l-0.7,3.9l-11.8,14.2l0,0.2h9.6l-0.8,4.8h-16.5L282.9,27.6z"/>
	<path class="st12" d="M307.5,20.5l0.4-2c1.2-6.9,5.7-10.8,11.2-10.8c5.7,0,8.5,4.3,7.3,11l-0.4,2.3h-13.1l-0.1,0.7
		c-0.6,3.3,0.8,5.4,3.2,5.4c2,0,3.6-1.1,4.3-2.9h5c-1.1,3.7-4.4,7.5-10.1,7.5C309.4,31.6,306.3,27.7,307.5,20.5z M321.3,17.2
		L321.3,17.2c0.5-2.9-0.7-5-3-5c-2.4,0-4.3,2.2-4.8,5l0,0H321.3z"/>
	<path class="st12" d="M348.4,11.5h0.2l2-11.5h5.5l-5.5,31.2h-5.4l0.6-3.6h-0.2c-1.4,2.4-3.8,3.9-6.6,3.9c-4.9,0-7.1-4.1-5.9-10.9
		l0.3-1.9c1.2-6.7,4.9-10.8,9.7-10.8C346,7.8,347.9,9.3,348.4,11.5z M339.1,18.8l-0.3,1.6c-0.7,4.2,0.6,6.2,3,6.2
		c2.5,0,4.6-2.1,5.3-6.2l0.3-1.6c0.7-3.9-0.6-6.2-3.2-6.2C341.9,12.6,339.8,14.7,339.1,18.8z"/>
	<path class="st12" d="M386.8,1.6c8.5,0,10.8,6,9.3,14.7c-1.5,8.7-5.9,14.9-14.5,14.9h-9.9l5.2-29.6H386.8z M378.1,26.1h3.5
		c4.3,0,7.3-2.5,8.6-9.7c1-5.5,0.2-9.8-5.2-9.8h-3.5L378.1,26.1z"/>
	<path class="st12" d="M402.2,20.5l0.4-2c1.2-6.9,5.7-10.8,11.2-10.8c5.7,0,8.5,4.3,7.3,11l-0.4,2.3h-13.1l-0.1,0.7
		c-0.6,3.3,0.8,5.4,3.2,5.4c2,0,3.6-1.1,4.3-2.9h5c-1.1,3.7-4.4,7.5-10.1,7.5C404.1,31.6,401,27.7,402.2,20.5z M416.1,17.2
		L416.1,17.2c0.5-2.9-0.7-5-3-5c-2.4,0-4.3,2.2-4.8,5l0,0H416.1z"/>
	<path class="st12" d="M432.5,31.5c-4,0-6.3-2.6-5.5-7c0.7-4.2,3.8-6.8,8.5-6.8h5l0.4-2c0.4-2.2-0.6-3.4-2.6-3.4c-2,0-3.4,1.2-3.8,3
		h-5.1c0.8-3.8,3.6-7.5,9.8-7.5c4.8,0,8,2.4,7.1,7.9l-2.7,15.5h-5.1l0.5-2.8h-0.2C437.5,30,435.6,31.5,432.5,31.5z M439.4,23.6
		l0.4-2.4h-3.7c-2.2,0-3.4,1.1-3.7,2.8c-0.4,2.1,1,3.1,2.6,3.1C437.1,27.1,439.1,25.7,439.4,23.6z"/>
	<path class="st12" d="M457.8,0h5.5l-5.5,31.2h-5.5L457.8,0z"/>
	<path class="st12" d="M467.8,20.5l0.4-2c1.2-6.9,5.7-10.8,11.2-10.8c5.7,0,8.5,4.3,7.3,11l-0.4,2.3h-13.1l-0.1,0.7
		c-0.6,3.3,0.8,5.4,3.2,5.4c2,0,3.6-1.1,4.3-2.9h5c-1.1,3.7-4.4,7.5-10.1,7.5C469.7,31.6,466.6,27.7,467.8,20.5z M481.6,17.2
		L481.6,17.2c0.5-2.9-0.7-5-3-5c-2.4,0-4.3,2.2-4.8,5l0,0H481.6z"/>
	<path class="st12" d="M496.5,8.1h5.5l-0.6,3.3h0.2c0.7-1.5,2.6-3.6,5.4-3.6c0.8,0,1.3,0.1,1.7,0.2l-0.9,5.2
		c-0.4-0.2-1.2-0.2-2.1-0.2c-3.3,0-4.8,2.2-5.4,5.3L498,31.2h-5.6L496.5,8.1z"/>
	<path class="st12" d="M523.5,7.7c4.9,0,7.5,2.7,6.7,7.1h-4.8c0.1-1.4-0.4-2.9-2.8-2.9c-1.9,0-3.3,1-3.6,2.6
		c-0.4,2.2,2.6,2.6,4.8,3.1c3.7,0.8,6.1,2.3,5.3,6.5c-0.8,4.8-4.7,7.6-10.2,7.6c-5.4,0-8-2.8-7.3-6.9h5.3c-0.1,1.6,1,2.8,3.1,2.8
		c2.3,0,3.6-1.2,3.8-2.6c0.4-2.1-2.1-2.4-4.6-3c-3.5-0.9-6.2-2.5-5.5-6.7C514.7,9.8,519,7.7,523.5,7.7z"/>
	<path class="st12" d="M567.9,18.7l-0.3,1.6c-1.2,6.8-5.4,11.2-11.5,11.2c-6.1,0-8.8-4.4-7.6-11.2l0.3-1.6
		c1.1-6.4,5.4-11.1,11.5-11.1C566.5,7.7,569.1,12.3,567.9,18.7z M554.4,18.7l-0.3,1.8c-0.6,3.4,0,6.4,2.9,6.4c2.9,0,4.6-2.9,5.2-6.4
		l0.3-1.8c0.6-3.6-0.1-6.4-2.9-6.4S555,15.2,554.4,18.7z"/>
	<path class="st12" d="M578.5,12.8h-3l0.8-4.7h3l0.4-2.3c0.8-4.7,3.3-6.5,8.2-6.5c1.3,0,2,0.1,2.3,0.2l-0.8,4.3
		c-0.3,0-0.6-0.1-1.3-0.1c-1.9,0-3,0.7-3.3,2.7l-0.3,1.8h4l-0.8,4.7h-3.8l-3.2,18.4h-5.4L578.5,12.8z"/>
</g>
<line class="st13" x1="607.6" y1="17.7" x2="706" y2="17.7"/>
<line class="st13" x1="0" y1="17.7" x2="98.4" y2="17.7"/>
</svg>
