<?xml version="1.0" encoding="utf-8"?>
<!-- Generator: Adobe Illustrator 23.1.1, SVG Export Plug-In . SVG Version: 6.00 Build 0)  -->
<svg version="1.1" id="Layer_1" xmlns="http://www.w3.org/2000/svg" xmlns:xlink="http://www.w3.org/1999/xlink" x="0px" y="0px"
	 viewBox="0 0 1969.2 163.2" style="enable-background:new 0 0 1969.2 163.2;" xml:space="preserve">
<style type="text/css">
	.st0{fill:none;stroke:#000000;stroke-miterlimit:10;}
	.st1{fill:#008FBE;}
</style>
<g>
	<g>
		<path d="M122.5,22.4L65.9,100h75.2L122.5,22.4z M151.6,163.2c0.3-2.2,0.5-4.4,0.5-6.6c0-4.8-0.9-11.4-2.8-19.9l-5.4-23.5H56.7
			l-20.1,27.5c-4.4,6-7.5,10.5-9.2,13.6c-1.7,3.2-2.9,6.1-3.6,8.8H2.4c5.6-5.1,10.9-11,15.8-17.6l98.9-135.4
			c-0.7-2.2-1.4-3.9-2.2-5.1c-0.8-1.2-2-2.9-3.7-5.1h32.9l32.1,133.9c3.2,14.1,6.4,23.9,9.4,29.3H151.6z"/>
	</g>
	<g>
		<path class="st0" d="M122.5,22.4L65.9,100h75.2L122.5,22.4z M151.6,163.2c0.3-2.2,0.5-4.4,0.5-6.6c0-4.8-0.9-11.4-2.8-19.9
			l-5.4-23.5H56.7l-20.1,27.5c-4.4,6-7.5,10.5-9.2,13.6c-1.7,3.2-2.9,6.1-3.6,8.8H2.4c5.6-5.1,10.9-11,15.8-17.6l98.9-135.4
			c-0.7-2.2-1.4-3.9-2.2-5.1c-0.8-1.2-2-2.9-3.7-5.1h32.9l32.1,133.9c3.2,14.1,6.4,23.9,9.4,29.3H151.6z"/>
	</g>
	<g>
		<path d="M358.9,0l-2.5,15c-2.9-0.5-6.8-0.9-11.6-1.3c-4.8-0.3-11.4-0.5-19.8-0.5h-66.6L242.9,75h60.4c8.3,0,15-0.2,20-0.5
			c5-0.3,9.6-0.8,13.9-1.3L333.1,90c-4.3-0.5-8.8-0.9-13.5-1.3c-4.8-0.3-11.3-0.5-19.6-0.5h-60.4l-15.3,61.7h66.6
			c8.5,0,15.3-0.2,20.3-0.5c5-0.3,9.1-0.8,12.1-1.3l-5.1,15H192.6c1.7-3.6,3.2-7.2,4.5-11c1.3-3.7,2.7-8.6,4.2-14.5l28.1-112.2
			c1.4-5.8,2.4-10.6,3.1-14.4c0.7-3.8,1-7.5,1-11.1H358.9z"/>
	</g>
	<g>
		<path class="st0" d="M358.9,0l-2.5,15c-2.9-0.5-6.8-0.9-11.6-1.3c-4.8-0.3-11.4-0.5-19.8-0.5h-66.6L242.9,75h60.4
			c8.3,0,15-0.2,20-0.5c5-0.3,9.6-0.8,13.9-1.3L333.1,90c-4.3-0.5-8.8-0.9-13.5-1.3c-4.8-0.3-11.3-0.5-19.6-0.5h-60.4l-15.3,61.7
			h66.6c8.5,0,15.3-0.2,20.3-0.5c5-0.3,9.1-0.8,12.1-1.3l-5.1,15H192.6c1.7-3.6,3.2-7.2,4.5-11c1.3-3.7,2.7-8.6,4.2-14.5l28.1-112.2
			c1.4-5.8,2.4-10.6,3.1-14.4c0.7-3.8,1-7.5,1-11.1H358.9z"/>
	</g>
	<g>
		<path d="M384.7,75.5h83.6c4.4,0,7.6-0.9,9.4-2.5c1.9-1.7,3.5-5.3,4.8-10.7l8.9-35.7c0.7-3.2,1-5.7,1-7.4c0-2.2-0.6-3.7-1.9-4.6
			c-1.3-0.9-3.5-1.3-6.8-1.3h-83.7L384.7,75.5z M381.3,88.7l-12.2,49c-1.5,6.1-2.6,11.1-3.2,14.8c-0.6,3.7-0.9,7.3-0.9,10.7h-30.6
			c1.7-3.6,3.2-7.2,4.5-11c1.3-3.7,2.7-8.6,4.2-14.5l28.1-112.2c1.4-5.8,2.4-10.6,3.1-14.4c0.7-3.8,1-7.5,1-11.1h113
			c10.7,0,18.4,1.3,23.1,3.8c4.7,2.6,7,7.1,7,13.8c0,3.9-0.7,8.6-2,14l-6.4,25.8c-3.2,12.2-7.7,20.6-13.4,25
			c-5.7,4.4-14,6.6-24.9,6.6v0.5c3.4,18,6.5,33.1,9.4,45.3c2.9,12.2,6,21.6,9.2,28.4h-30.1l-16.1-74.5H381.3z"/>
	</g>
	<g>
		<path d="M660.8,26.5c0.7-3.2,1-5.7,1-7.4c0-2.2-0.6-3.7-1.9-4.6c-1.3-0.9-3.5-1.3-6.8-1.3h-74.7c-4.6,0-7.8,0.9-9.7,2.6
			c-1.9,1.7-3.4,5.3-4.6,10.7l-27.5,110.2c-0.9,3.2-1.3,5.7-1.3,7.4c0,2.2,0.7,3.7,2,4.6c1.4,0.9,3.7,1.3,6.9,1.3H619
			c4.4,0,7.6-0.9,9.4-2.5c1.9-1.7,3.5-5.3,4.8-10.7L660.8,26.5z M659.6,0c9.7,0,16.7,1.7,21,5.2c4.3,3.5,6.5,8.5,6.5,14.9
			c0,3.2-0.5,6.9-1.5,11l-25.2,101c-2.4,9.9-6.8,17.5-13.4,22.9c-6.5,5.4-15.9,8.2-28.2,8.2h-80.8c-9.9,0-17-1.7-21.3-5.2
			c-4.3-3.5-6.5-8.5-6.5-14.9c0-3.2,0.5-6.9,1.5-11l25.2-101c2.6-10,7.1-17.7,13.5-23.1c6.5-5.4,15.9-8,28.3-8H659.6z"/>
	</g>
	<g>
		<path class="st0" d="M660.8,26.5c0.7-3.2,1-5.7,1-7.4c0-2.2-0.6-3.7-1.9-4.6c-1.3-0.9-3.5-1.3-6.8-1.3h-74.7
			c-4.6,0-7.8,0.9-9.7,2.6c-1.9,1.7-3.4,5.3-4.6,10.7l-27.5,110.2c-0.9,3.2-1.3,5.7-1.3,7.4c0,2.2,0.7,3.7,2,4.6
			c1.4,0.9,3.7,1.3,6.9,1.3H619c4.4,0,7.6-0.9,9.4-2.5c1.9-1.7,3.5-5.3,4.8-10.7L660.8,26.5z M659.6,0c9.7,0,16.7,1.7,21,5.2
			c4.3,3.5,6.5,8.5,6.5,14.9c0,3.2-0.5,6.9-1.5,11l-25.2,101c-2.4,9.9-6.8,17.5-13.4,22.9c-6.5,5.4-15.9,8.2-28.2,8.2h-80.8
			c-9.9,0-17-1.7-21.3-5.2c-4.3-3.5-6.5-8.5-6.5-14.9c0-3.2,0.5-6.9,1.5-11l25.2-101c2.6-10,7.1-17.7,13.5-23.1
			c6.5-5.4,15.9-8,28.3-8H659.6z"/>
	</g>
	<g>
		<path class="st1" d="M763.9,65.3h36.2c4.1,0,6.9-0.6,8.5-1.8c1.6-1.2,2.9-3.7,4-7.4l4.8-19.9c0.5-1.9,0.8-3.4,0.8-4.6
			c0-1.9-0.6-3.1-1.9-3.7c-1.3-0.6-3.5-0.9-6.8-0.9h-36.2L763.9,65.3z M746,136.2h36.2c4.1,0,7-0.6,8.7-1.8c1.7-1.2,3-3.7,3.8-7.4
			l6.4-25.5c0.5-1.9,0.8-3.4,0.8-4.6c0-1.9-0.6-3.1-1.9-3.7c-1.3-0.6-3.5-0.9-6.8-0.9H757L746,136.2z M710.8,28.1
			c2-8,3.1-14.4,3.1-19.1c0-2.7-0.3-5.7-1-8.9h133.6c12.8,0,21.8,1.9,27.3,5.6c5.4,3.7,8.2,9.2,8.2,16.3c0,3.2-0.5,7.1-1.5,11.7
			l-4.6,18.6c-2.5,9.7-7,16.2-13.3,19.5c-6.3,3.3-15.9,5.5-28.8,6.5v0.5c11.6,1.5,19.6,3.3,24,5.4c4.4,2,6.6,5.5,6.6,10.5
			c0,2.2-0.4,4.8-1.3,7.9l-6.6,27c-2.7,11.1-7.8,19.4-15.3,25.1c-7.5,5.7-19.3,8.5-35.4,8.5H672c2.7-3.6,5-7.4,6.8-11.3
			c1.8-4,3.5-9.6,5.2-16.7L710.8,28.1z"/>
		<path class="st1" d="M986.7,92.3l-9.4-55.1l-38.8,55.1H986.7z M919.1,119.3l-16.6,22.4c-2.4,3.1-3.9,6.3-4.6,9.7
			c-0.7,2.6-1,4.3-1,5.4c0,1.2,0.5,3.3,1.5,6.4h-46.2c3.2-3.1,5.9-5.7,8.2-8c2.2-2.3,4.2-4.5,6.1-6.6c1.9-2.1,3.7-4.2,5.4-6.4
			c1.7-2.1,3.8-5,6.4-8.5L968.9,9.2L964,0h73.7l22.9,140.8c1.5,8.5,4.4,16,8.7,22.4h-81.9c2.5-3.2,4.1-5.4,4.7-6.5
			c0.6-1.1,1.2-2.5,1.7-4.2c0.7-2.9,1-5.7,1-8.4c0-0.5-0.1-1.2-0.3-2c-0.2-0.8-0.2-1.4-0.2-1.8l-3.6-20.9H919.1z"/>
		<path class="st1" d="M1165.2,65.3h35.2c4.1,0,6.9-0.6,8.5-1.8c1.6-1.2,2.9-3.7,4-7.4l4.8-19.9c0.5-1.9,0.8-3.4,0.8-4.6
			c0-1.9-0.6-3.1-1.9-3.7c-1.3-0.6-3.5-0.9-6.8-0.9h-35.2L1165.2,65.3z M1158.4,92.3l-10.7,42.8c-1.9,8-2.8,14.4-2.8,19.1
			c0,2.7,0.3,5.7,1,8.9h-72.4c2.7-3.6,5-7.4,6.8-11.4c1.8-4,3.5-9.6,5.2-16.7l26.8-107.1c1.9-7.3,2.8-13.1,2.8-17.3
			c0-3.7-0.8-7.3-2.3-10.7h134.1c11.9,0,20.7,1.7,26.5,5.1c5.8,3.4,8.7,9.3,8.7,17.6c0,3.7-0.7,8.2-2,13.3l-7.4,30.1
			c-1.5,5.8-3.4,10.4-5.5,13.9c-2.1,3.5-4.5,6-7.1,7.7c-2.6,1.6-5.4,2.7-8.2,3.3c-2.8,0.6-6.4,1.1-10.8,1.4l10.7,45.9
			c0.5,2.2,1.1,4.7,1.8,7.4c1.9,8.7,3.7,14.5,5.6,17.6h-69.6l-12-70.9H1158.4z"/>
		<path class="st1" d="M1363.6,65.3h35.2c4.1,0,6.9-0.6,8.5-1.8c1.6-1.2,2.9-3.7,3.9-7.4l4.8-19.9c0.5-1.9,0.8-3.4,0.8-4.6
			c0-1.9-0.6-3.1-1.9-3.7c-1.3-0.6-3.5-0.9-6.8-0.9h-35.2L1363.6,65.3z M1356.8,92.3l-10.7,42.8c-1.9,8-2.8,14.4-2.8,19.1
			c0,2.7,0.3,5.7,1,8.9h-72.4c2.7-3.6,5-7.4,6.8-11.4c1.8-4,3.5-9.6,5.2-16.7l26.8-107.1c1.9-7.3,2.8-13.1,2.8-17.3
			c0-3.7-0.8-7.3-2.3-10.7h134.1c11.9,0,20.7,1.7,26.5,5.1c5.8,3.4,8.7,9.3,8.7,17.6c0,3.7-0.7,8.2-2,13.3L1471,66
			c-1.5,5.8-3.4,10.4-5.5,13.9c-2.1,3.5-4.5,6-7.1,7.7c-2.6,1.6-5.4,2.7-8.2,3.3c-2.8,0.6-6.4,1.1-10.8,1.4l10.7,45.9
			c0.5,2.2,1.1,4.7,1.8,7.4c1.9,8.7,3.7,14.5,5.6,17.6h-69.6l-12-70.9H1356.8z"/>
		<path class="st1" d="M1474.8,163.2c2.7-3.6,5-7.3,6.8-11.3c1.8-4,3.5-9.6,5.2-16.7l26.8-107.1c2-8,3.1-14.4,3.1-19.1
			c0-2.7-0.3-5.7-1-8.9h72.4c-2.7,3.6-5,7.4-6.7,11.4c-1.8,4-3.6,9.6-5.5,16.7L1549,135.1c-1.9,8-2.8,14.4-2.8,19.1
			c0,2.7,0.3,5.7,1,8.9H1474.8z"/>
		<path class="st1" d="M1697.5,136.2c6.6,0,12-0.4,16.1-1.1c4.1-0.8,8.5-1.8,13.3-3.2l-13.5,31.4h-143.8c2.7-3.6,5-7.3,6.8-11.4
			c1.8-4,3.5-9.6,5.2-16.7l26.8-107.1c2-8,3.1-14.4,3.1-19.1c0-2.7-0.3-5.7-1-8.9h141.3l-2.8,31.4l-0.5-0.3
			c-3.9-1.4-7.8-2.4-11.6-3.1c-3.8-0.7-8.9-1-15.2-1h-50.8l-9.4,38.2h44.4c6.1,0,11.2-0.3,15.2-1c4-0.7,8.5-1.8,13.4-3.3h0.5
			l-8.9,35.7l-0.3-0.3c-4.1-1.4-8-2.4-11.9-3.1c-3.8-0.7-8.8-1-14.9-1h-44.4l-11,43.9H1697.5z"/>
		<path class="st1" d="M1821.9,65.3h35.2c4.1,0,6.9-0.6,8.5-1.8c1.6-1.2,2.9-3.7,4-7.4l4.8-19.9c0.5-1.9,0.8-3.4,0.8-4.6
			c0-1.9-0.6-3.1-1.9-3.7c-1.3-0.6-3.5-0.9-6.8-0.9h-35.2L1821.9,65.3z M1815,92.3l-10.7,42.8c-1.9,8-2.8,14.4-2.8,19.1
			c0,2.7,0.3,5.7,1,8.9h-72.4c2.7-3.6,5-7.4,6.8-11.4c1.8-4,3.5-9.6,5.2-16.7l26.8-107.1c1.9-7.3,2.8-13.1,2.8-17.3
			c0-3.7-0.8-7.3-2.3-10.7h134.1c11.9,0,20.7,1.7,26.5,5.1c5.8,3.4,8.7,9.3,8.7,17.6c0,3.7-0.7,8.2-2,13.3l-7.4,30.1
			c-1.5,5.8-3.4,10.4-5.5,13.9c-2.1,3.5-4.5,6-7.1,7.7c-2.6,1.6-5.4,2.7-8.2,3.3c-2.8,0.6-6.4,1.1-10.8,1.4l10.7,45.9
			c0.5,2.2,1.1,4.7,1.8,7.4c1.9,8.7,3.7,14.5,5.6,17.6h-69.6l-12-70.9H1815z"/>
		<polygon class="st1" points="1929.2,163.2 1929.2,140.4 1920.7,140.4 1920.7,137.4 1941.1,137.4 1941.1,140.4 1932.6,140.4 
			1932.6,163.2 		"/>
		<path class="st1" d="M1944.5,163.2v-25.8h5.1l6.1,18.3c0.6,1.7,1,3,1.2,3.8c0.3-0.9,0.8-2.3,1.4-4.1l6.2-18h4.6v25.8h-3.3v-21.6
			l-7.5,21.6h-3.1l-7.5-22v22H1944.5z"/>
	</g>
</g>
</svg>
